<svg xmlns="http://www.w3.org/2000/svg" xmlns:xlink="http://www.w3.org/1999/xlink" viewBox="0 0 134.29 54.64"><defs><style>.cls-1{fill:none;}.cls-2{clip-path:url(#clip-path);}.cls-3{font-size:39.38px;}.cls-11,.cls-3,.cls-6{fill:#8ec038;}.cls-3,.cls-4{font-family:Wasabi_YandiDesigns, Wasabi;}.cls-4{font-size:23.02px;}.cls-4,.cls-5{fill:#353936;}.cls-6{font-size:5.27px;font-family:Montserrat-Regular, Montserrat;letter-spacing:0.2em;}.cls-7{letter-spacing:0.19em;}.cls-8{letter-spacing:0.19em;}.cls-9{letter-spacing:0.2em;}.cls-10{letter-spacing:0.19em;}</style><clipPath id="clip-path"><rect class="cls-1" x="52.75" y="2.84" width="81.25" height="35.89"/></clipPath></defs><title>Recurso 1</title><g id="Capa_2" data-name="Capa 2"><g id="Capa_1-2" data-name="Capa 1"><g class="cls-2"><text class="cls-3" transform="translate(53.03 36.22) scale(0.95 1)">Maki</text><text class="cls-4" transform="translate(103.19 29.62) scale(0.95 1)">home</text><path class="cls-5" d="M127,32.23c.22.36.13.58-.26.67l-7.88,1.84a.68.68,0,0,0-.22.09l1.65.13,6.64.51c.28,0,.44.16.42.38s-.17.36-.43.34L124.41,36l-8.07-.63a.74.74,0,0,0-.29,0l-3.38.78-.13,0a.34.34,0,0,1-.45-.26.35.35,0,0,1,.3-.43l1.17-.28a.36.36,0,0,0,.18-.08l-1.24-.1h-.14a.34.34,0,0,1-.35-.38.35.35,0,0,1,.41-.33l1.1.09,2.51.19a.74.74,0,0,0,.26,0l10.48-2.43,0,0Z"/></g><text class="cls-6" transform="translate(52.47 45.33)">SUSHI DEL<tspan class="cls-7" x="38.39" y="0">I</tspan><tspan class="cls-8" x="40.99" y="0">V</tspan><tspan class="cls-9" x="45.65" y="0">E</tspan><tspan class="cls-10" x="50.23" y="0">R</tspan><tspan class="cls-9" x="55.04" y="0">Y</tspan></text><path class="cls-11" d="M0,20.66c.09-.44.16-.87.27-1.3a9.72,9.72,0,0,1,5.47-6.45,23.06,23.06,0,0,1,7-2.11,52.09,52.09,0,0,1,12.35-.35,27.19,27.19,0,0,1,9.14,2.07,11.23,11.23,0,0,1,5.08,4.05c.35.53.62,1.11,1,1.72l.55-.13a7.15,7.15,0,0,1,7.58,2.7,4.88,4.88,0,0,1,.34.58,1.5,1.5,0,0,1-.52,2.12,6.44,6.44,0,0,1-4.34,1l-.33,0c0,.4.07.77.09,1.14a6.12,6.12,0,0,1-.78,3.45,1.57,1.57,0,0,1-2.34.69l-.69-.38c-.17.62-.31,1.24-.5,1.84a8.92,8.92,0,0,1-3.56,4.61,18,18,0,0,1-7.36,2.78,48.49,48.49,0,0,1-13,.42A27,27,0,0,1,7.93,37.4a3.43,3.43,0,0,1-.44-.19.66.66,0,0,1-.29-.9A.63.63,0,0,1,8,35.92c.5.16,1,.36,1.48.53a35.61,35.61,0,0,0,11,1.4,36.89,36.89,0,0,0,9.76-1.11,13.17,13.17,0,0,0,5.72-3A7.6,7.6,0,0,0,38.38,29,2.34,2.34,0,0,0,38,27.32a6.68,6.68,0,0,1-1-3.14l0-.35-6.13-.66c-2.24-.24-4.47-.51-6.71-.71a46,46,0,0,0-9.16.16c-3.2.35-6.4.72-9.6,1.06-.52.05-1,0-1.58.06a.67.67,0,0,0-.45.29C1.72,27,2,31.75,5.33,34.29a2.79,2.79,0,0,1,.32.28.71.71,0,0,1,.13,1,.69.69,0,0,1-1,.08A13.36,13.36,0,0,1,3,34C.65,31,.4,27.63,1.61,24.1c.06-.16.13-.33.21-.55A2.4,2.4,0,0,1,0,22Zm19.6-4.35c0-1.36,0-2.71,0-4.07,0-.34-.09-.49-.46-.47-1,.06-2,.06-3,.13-1.72.12-1.73.13-2.33,1.7a11,11,0,0,0-.52,7.1c.13.43.33.53.75.5,1.67-.15,3.33-.28,5-.37.43,0,.53-.15.52-.56C19.59,19,19.6,17.63,19.6,16.31Zm8.51-4a12.62,12.62,0,0,1,.77,9,2.69,2.69,0,0,0,.32.1c1.62.2,3.24.41,4.87.58a.55.55,0,0,0,.42-.31,12,12,0,0,0-.06-7.13,1,1,0,0,0-.5-.56c-1.39-.49-2.79-1-4.2-1.4A16,16,0,0,0,28.11,12.32ZM41.48,28.58A11.27,11.27,0,0,0,42,27.41,5.35,5.35,0,0,0,41.82,24a.88.88,0,0,1,.12-1,.82.82,0,0,1,1-.14l.19.05a5.28,5.28,0,0,0,3.9-.32c.52-.26.53-.33.21-.82a5.64,5.64,0,0,0-6.46-2c-.8.33-.81.35-.71,1.2.13,1.16-.13,1.56-1.26,1.87-.29.08-.41.21-.37.49a16.1,16.1,0,0,0,.4,2.34A4.67,4.67,0,0,0,41.48,28.58Zm-37-13-.13-.09c-.4.42-.82.82-1.19,1.27a7.43,7.43,0,0,0-1.66,4.63A.53.53,0,0,0,2,22c.81.09,1.61.14,2.42.19.27,0,.4-.12.31-.43a14.11,14.11,0,0,1-.34-5.49C4.4,16.07,4.44,15.85,4.47,15.62Z"/><path class="cls-11" d="M20.38,30.71a3.48,3.48,0,0,1-2.4-1c-.37-.37-.43-.78-.14-1.1a.75.75,0,0,1,1.1,0,2,2,0,0,0,2.54.31,5.07,5.07,0,0,0,.45-.36.71.71,0,0,1,1,0,.7.7,0,0,1-.08,1.06A3.46,3.46,0,0,1,20.38,30.71Z"/><path class="cls-11" d="M14.42,28.53a6.57,6.57,0,0,1-.06.71.64.64,0,0,1-.67.56.62.62,0,0,1-.68-.55,8,8,0,0,1,0-1.47.62.62,0,0,1,.67-.61.66.66,0,0,1,.71.64C14.41,28,14.4,28.25,14.42,28.53Z"/><path class="cls-11" d="M26.41,28.46c0-.2,0-.41,0-.62a.68.68,0,0,1,.67-.67.63.63,0,0,1,.72.56,7.62,7.62,0,0,1,0,1.51.63.63,0,0,1-.72.56.68.68,0,0,1-.67-.67C26.39,28.91,26.41,28.68,26.41,28.46Z"/></g></g></svg>